<?xml version="1.0" encoding="UTF-8" standalone="no"?>
<!-- Created with Inkscape (http://www.inkscape.org/) -->

<svg
   xmlns:dc="http://purl.org/dc/elements/1.1/"
   xmlns:cc="http://creativecommons.org/ns#"
   xmlns:rdf="http://www.w3.org/1999/02/22-rdf-syntax-ns#"
   xmlns:svg="http://www.w3.org/2000/svg"
   xmlns="http://www.w3.org/2000/svg"
   xmlns:sodipodi="http://sodipodi.sourceforge.net/DTD/sodipodi-0.dtd"
   xmlns:inkscape="http://www.inkscape.org/namespaces/inkscape"
   width="150"
   height="150"
   id="svg3019"
   version="1.1"
   inkscape:version="0.92.3 (2405546, 2018-03-11)"
   sodipodi:docname="t.svg">
  <defs
     id="defs3021" />
  <sodipodi:namedview
     id="base"
     pagecolor="#ffffff"
     bordercolor="#666666"
     borderopacity="1.0"
     inkscape:pageopacity="0.0"
     inkscape:pageshadow="2"
     inkscape:zoom="2.8"
     inkscape:cx="46.203141"
     inkscape:cy="41.798253"
     inkscape:document-units="px"
     inkscape:current-layer="layer1"
     showgrid="false"
     fit-margin-top="0"
     fit-margin-left="0"
     fit-margin-right="0"
     fit-margin-bottom="0"
     inkscape:window-width="2483"
     inkscape:window-height="1385"
     inkscape:window-x="1997"
     inkscape:window-y="27"
     inkscape:window-maximized="1" />
  <metadata
     id="metadata3024">
    <rdf:RDF>
      <cc:Work
         rdf:about="">
        <dc:format>image/svg+xml</dc:format>
        <dc:type
           rdf:resource="http://purl.org/dc/dcmitype/StillImage" />
        <dc:title />
      </cc:Work>
    </rdf:RDF>
  </metadata>
  <g
     inkscape:label="Layer 1"
     inkscape:groupmode="layer"
     id="layer1"
     transform="translate(-228.18625,-374.07721)">
    <g
       id="g24">
      <path
         inkscape:export-ydpi="91.199997"
         inkscape:export-xdpi="91.199997"
         inkscape:export-filename="/home/lrd900/triply/household/logo.152.png"
         id="path200-6"
         style="fill:#ed583a;fill-opacity:1;fill-rule:nonzero;stroke:none"
         d="m 359.49206,398.9047 c -3.35765,0 -6.07561,-2.71649 -6.07561,-6.08267 0,-3.36488 2.71796,-6.08267 6.07561,-6.08267 3.35634,0 6.07561,2.71779 6.07561,6.08267 0,3.36618 -2.71927,6.08267 -6.07561,6.08267 z m 0,-24.79999 c -10.3288,0 -18.69419,8.37691 -18.69419,18.71732 0,2.20534 0.40077,4.31264 1.09919,6.27745 l -64.57328,0 c -0.94124,4.61069 -2.98951,8.77692 -5.72575,12.40064 l 38.20951,-0.006 0,63.32616 c 4.60045,0.94776 8.75703,2.99231 12.36924,5.73102 l 0,-69.05849 37.31528,0.0471 c 10.32749,0 18.69419,-8.37691 18.69419,-18.71731 0,-10.34041 -8.3667,-18.71731 -18.69419,-18.71731"
         inkscape:connector-curvature="0" />
      <path
         inkscape:export-ydpi="91.199997"
         inkscape:export-xdpi="91.199997"
         inkscape:export-filename="/home/lrd900/triply/household/logo.152.png"
         id="path202-6"
         style="fill:#ed583a;fill-opacity:1;fill-rule:nonzero;stroke:none"
         d="m 246.88436,398.9047 c -3.35765,0 -6.07823,-2.71649 -6.07823,-6.08267 0,-3.36488 2.72058,-6.08267 6.07823,-6.08267 3.35764,0 6.07692,2.71779 6.07692,6.08267 0,3.36618 -2.71928,6.08267 -6.07692,6.08267 z m 87.8144,-24.82744 -87.8144,0.0274 c -10.33011,0 -18.69811,8.37691 -18.69811,18.71731 0,10.34041 8.368,18.71732 18.69811,18.71732 10.32619,0 18.69158,-8.37691 18.69158,-18.71732 0,-2.23541 -0.41122,-4.37016 -1.12792,-6.35719 l 64.52107,0 c 0.95038,-4.60547 2.99473,-8.76516 5.72967,-12.38757"
         inkscape:connector-curvature="0" />
      <path
         inkscape:export-ydpi="91.199997"
         inkscape:export-xdpi="91.199997"
         inkscape:export-filename="/home/lrd900/triply/household/logo.152.png"
         id="path204-9"
         style="fill:#ed583a;fill-opacity:1;fill-rule:nonzero;stroke:none"
         d="m 303.49173,511.43995 c -3.35895,0 -6.07823,-2.71779 -6.07823,-6.08397 0,-3.36358 2.71928,-6.08137 6.07823,-6.08137 3.35895,0 6.07692,2.71779 6.07692,6.08137 0,3.36618 -2.71797,6.08397 -6.07692,6.08397 z m 0,-24.80129 c -2.21667,0 -4.33413,0.40525 -6.30538,1.11379 l 0,-63.86084 -12.37706,0 0.007,81.06173 c -0.002,0.13465 -0.0209,0.26799 -0.0209,0.40264 0,10.3404 8.36539,18.72123 18.6955,18.72123 10.32619,0 18.69419,-8.38083 18.69419,-18.72123 0,-10.34172 -8.368,-18.71732 -18.69419,-18.71732"
         inkscape:connector-curvature="0" />
    </g>
  </g>
</svg>
