<?xml version="1.0" encoding="UTF-8" standalone="no"?>
<!-- Created with Inkscape (http://www.inkscape.org/) -->

<svg
   xmlns:dc="http://purl.org/dc/elements/1.1/"
   xmlns:cc="http://creativecommons.org/ns#"
   xmlns:rdf="http://www.w3.org/1999/02/22-rdf-syntax-ns#"
   xmlns:svg="http://www.w3.org/2000/svg"
   xmlns="http://www.w3.org/2000/svg"
   version="1.1"
   viewBox="0 0 1714 514"
  <metadata
     id="metadata70">
    <rdf:RDF>
      <cc:Work
         rdf:about="">
        <dc:format>image/svg+xml</dc:format>
        <dc:type
           rdf:resource="http://purl.org/dc/dcmitype/StillImage" />
        <dc:title></dc:title>
      </cc:Work>
    </rdf:RDF>
  </metadata>
  <defs
     id="defs68" />
  <g
     id="g175">
    <path
       d="M 35.762571,456.43461 C 30.691484,453.68307 30,450.75522 30,432.03497 v -17.06434 l 3.423114,-3.73532 3.423114,-3.73531 202.826882,-0.28532 c 111.55479,-0.15693 204.36639,-0.01 206.24799,0.32741 1.94653,0.34863 4.64043,1.91802 6.25,3.64108 L 455,414.21151 v 18.17174 c 0,19.86905 -0.32752,21.1834 -6.01104,24.12246 -2.53668,1.31177 -27.78297,1.4894 -206.6893,1.45425 -178.31249,-0.035 -204.142003,-0.22579 -206.537089,-1.52535 z M 86.909131,372.75 c 14.569819,-33.68871 92.118889,-206.8938 94.697059,-211.50496 7.20819,-12.89215 19.6843,-26.24201 32.44422,-34.71643 8.61711,-5.723 157.93405,-90.87748 158.44906,-90.36247 0.25457,0.254564 -10.1832,32.158822 -23.19503,70.89835 L 325.64656,177.5 l -0.0213,12 c -0.0258,14.55469 -4.08562,3.76715 40.77115,108.33466 C 384.8784,340.91873 400,376.35623 400,376.58466 400,376.8131 329.14099,377 242.53554,377 H 85.071075 Z M 299.21635,356.0789 c 7.44665,-3.58019 13.33678,-9.42509 16.9969,-16.86637 3.03516,-6.17069 3.28291,-7.41052 3.23658,-16.19736 -0.0397,-7.53382 -0.49814,-10.49796 -2.20148,-14.23487 -2.71165,-5.94905 -9.23022,-13.06755 -15.83546,-17.29287 -4.88917,-3.12757 -5.22689,-3.63893 -8.00865,-12.12635 -2.46744,-7.52836 -2.89023,-10.3651 -2.81108,-18.86108 0.13224,-14.19596 2.45939,-19.96407 11.36765,-28.17609 C 311.41691,223.60687 314.5,216.76564 314.5,204.5 c 0,-7.92019 -0.35024,-9.71334 -2.91921,-14.94553 C 307.86296,181.98242 301.4514,175.57085 294.1965,172.17018 289.21337,169.83438 287.24771,169.5 278.5,169.5 c -9.47595,0 -10.32849,0.17813 -16.26834,3.3991 -7.25057,3.93173 -12.03808,8.84873 -15.88532,16.315 -2.30015,4.46386 -2.78634,6.84105 -3.12627,15.2859 -0.37894,9.41358 -0.587,10.23457 -3.54812,14 -6.21689,7.90555 -14.20282,13.28166 -24.52729,16.51171 -8.53891,2.67143 -14.6688,2.54556 -21.27382,-0.43684 -18.85717,-8.51468 -40.10556,0.39586 -48.28747,20.2494 -1.32435,3.21356 -1.94593,7.17745 -1.98769,12.67573 -0.053,6.97385 0.34563,8.86258 3.10744,14.72477 9.01828,19.14212 30.577,26.76131 49.12591,17.36187 2.76619,-1.40174 5.31284,-3.00717 5.65922,-3.56762 0.83144,-1.3453 7.12287,-1.29426 13.71253,0.11125 11.61314,2.47696 23.76021,9.87693 29.27438,17.83388 2.33142,3.36425 3.09932,5.80676 3.65521,11.62636 1.48721,15.56969 9.96739,26.57504 24.71381,32.07291 5.72193,2.13329 20.48412,1.24634 26.37217,-1.58452 z m -54.27417,-62.36618 c -9.2554,-3.15529 -17.27407,-8.27031 -23.546,-15.01972 -4.82827,-5.19586 -5.41285,-6.3009 -5.55462,-10.5 -0.24615,-7.29057 -0.019,-8.18694 3.17455,-12.52954 6.37156,-8.66398 19.57767,-17.06365 31.71751,-20.17373 l 5.91494,-1.51534 7.3045,3.76281 c 6.7104,3.45675 7.46641,4.16947 9.29517,8.7628 2.5626,6.43651 3.45599,21.24314 1.79207,29.7007 -1.74238,8.85633 -4.32864,13.39559 -8.98591,15.77155 -2.15528,1.09954 -4.20078,2.4556 -4.54556,3.01346 -1.07009,1.73144 -9.69858,1.06842 -16.56665,-1.27299 z M 554,239.98749 v -94.03068 l 19.25,0.2716 19.25,0.27159 0.5,83.66694 c 0.275,46.01681 0.87439,84.04181 1.33199,84.5 0.45759,0.45818 14.76234,0.96405 31.78833,1.12415 l 30.95635,0.29108 -0.28834,8.70892 L 656.5,333.5 605.25,333.75908 554,334.01816 Z M 702.24487,240.29611 702.5,146.5 l 41,-0.27519 c 23.63902,-0.15866 43.73584,0.14477 47.461,0.7166 16.58826,2.54636 30.27949,15.13705 34.00021,31.26718 0.59166,2.56498 0.99496,27.62482 1.00248,62.29141 0.0135,62.46618 -0.0923,63.9246 -5.28073,72.77801 -3.5905,6.12673 -12.76592,14.40294 -19.43032,17.5261 L 795.5,333.5 l -46.75513,0.29611 -46.75514,0.2961 z m 71.32376,72.67067 c 4.83565,-2.3409 9.01292,-6.74497 11.08291,-11.68466 1.0795,-2.57606 1.34408,-14.74288 1.3265,-61 -0.0247,-65.11481 0.29968,-62.20722 -7.75096,-69.46557 -5.345,-4.81899 -9.31963,-5.80425 -23.4419,-5.81097 -10.56185,-0.005 -11.81669,0.18479 -12.75,1.92868 -1.20025,2.24269 -1.46271,144.87974 -0.26987,146.6658 1.3961,2.09039 3.7814,2.38735 15.57665,1.93922 9.38197,-0.35644 12.75282,-0.89084 16.22667,-2.5725 z M 1011.5488,327 c -1.6007,-14.67491 -5.8613,-41.21906 -10.4521,-65.11679 -2.68187,-13.96077 -5.69341,-31.38641 -6.69231,-38.72366 -1.95588,-14.36657 -3.23295,-17.7404 -5.73823,-15.15955 -2.23911,2.30665 -38.38794,74.52248 -46.05212,92 -7.01587,15.99909 -8.26404,17.83624 -17.69766,26.04875 l -5.58363,4.86087 0.45491,-30.70481 c 0.67559,-45.60015 -1.93625,-84.99994 -6.82888,-103.01413 -5.27703,-19.4295 -12.77322,-25.45169 -24.52461,-19.70227 -6.50339,3.18181 -12.51659,10.15966 -15.15374,17.58474 -2.03221,5.7218 -3.88863,5.92382 -3.53916,0.38514 0.62629,-9.92584 13.75106,-27.53481 24.52442,-32.9034 9.35777,-4.66317 20.11867,-2.46451 25.15022,5.13868 8.59232,12.98387 15.27834,51.70588 16.19728,93.80643 0.27611,12.65 0.70968,24.0125 0.96347,25.25 0.93703,4.56895 3.79567,2.48052 8.22252,-6.00713 19.0845,-36.59088 42.3305,-83.44546 44.14562,-88.97977 1.96623,-5.99505 2.99939,-7.45134 9.38237,-13.22494 l 7.17283,-6.48805 0.2244,6.72495 c 0.6835,20.48147 4.0643,46.21469 10.6712,81.22494 1.9202,10.175 4.2115,22.775 5.0919,28 2.071,12.29145 2.3118,13 4.418,13 2.3764,0 33.585,-64.13253 38.4763,-79.06731 6.7299,-20.54859 6.7216,-31.94711 -0.029,-39.83389 l -3.5293,-4.12321 4.9944,-5.7378 c 2.7469,-3.15578 6.3888,-7.06151 8.0931,-8.67939 l 3.0986,-2.94161 3.6146,3.44161 c 11.8271,11.26126 8.5799,24.18092 -21.3489,84.9416 -12.6887,25.76033 -27.7274,58.46727 -29.6571,64.5 -0.3519,1.1 -4.4019,6.05 -9,11 l -8.3603,9 -0.7089,-6.5 z m 106.8275,3.45162 c -2.5666,-3.91718 -2.0115,-11.26808 4.0846,-54.08796 6.0107,-42.21969 6.0896,-43.0614 4.3873,-46.79739 -1.5459,-3.39292 -3.9392,-3.97292 -8.5111,-2.06263 -4.8881,2.04235 -7.6179,4.61656 -12.5381,11.82343 -4.4047,6.45179 -5.7555,6.89782 -3.3333,1.10069 2.0444,-4.89279 16.6689,-19.3183 23.6337,-23.31216 7.0397,-4.03673 13.0923,-4.27886 15.4899,-0.61967 2.5908,3.954 2.0006,11.86392 -4.0193,53.87408 -3.0635,21.37851 -5.57,40.61601 -5.57,42.75 0,11.53117 12.0355,9.06653 20.9555,-4.29128 2.159,-3.23314 4.2076,-6.76725 4.5524,-7.85358 0.708,-2.2307 2.4921,-2.68313 2.4921,-0.63198 0,2.26516 -10.0194,15.81119 -16.4327,22.21676 -6.9811,6.97259 -13.4111,10.44007 -19.36,10.44007 -3.3562,0 -4.4842,-0.49299 -5.831,-2.54838 z m 111.1237,1.55962 c -14.3031,-1.66973 -38.0007,-2.21084 -48.411,-1.10543 -5.7261,0.60802 -10.5509,0.96562 -10.7219,0.79466 -0.9422,-0.94222 8.8038,-17.14605 13.6536,-22.70047 17.5737,-20.12728 59.4793,-74.24067 59.4793,-76.80656 0,-1.36791 -1.3837,-1.83147 -7.1983,-2.41148 -7.3134,-0.72953 -12.2712,-1.7774 -27.0699,-5.72147 -6.9311,-1.84724 -8.8341,-2.01683 -11.7674,-1.04875 -4.9135,1.62161 -6.8558,5.73479 -6.1877,13.10338 l 0.5207,5.7426 -4.8281,4.07114 c -2.6555,2.23913 -5.1468,4.07114 -5.5364,4.07114 -0.3895,0 -0.4046,-2.58349 -0.034,-5.7411 1.3915,-11.83935 9.1353,-23.13705 19.1006,-27.86643 6.2589,-2.97038 12.7122,-3.05771 29,-0.39247 13.1318,2.14881 25.1,2.5487 30.4404,1.0171 1.8849,-0.54059 3.5836,-0.82642 3.7749,-0.63517 0.9492,0.94928 -8.4066,15.9635 -13.7825,22.11807 -3.363,3.85 -9.5452,11.275 -13.7384,16.5 -4.1932,5.225 -14.1888,17.6 -22.2125,27.5 -17.0974,21.09553 -25.0404,32.18391 -24.3477,33.98901 0.3652,0.95187 3.4673,1.30406 11.6815,1.32628 6.1514,0.0166 16.5843,0.7865 23.1843,1.71081 17.9062,2.50773 25.2619,2.34138 31.4292,-0.71077 4.9044,-2.42714 5.0708,-2.44378 5.0708,-0.50681 0,2.98955 -4.4909,8.30883 -9.4867,11.23657 -5.0879,2.98168 -11.4713,3.69681 -22.0133,2.46615 z m 60.2555,-0.58033 c -1.5095,-0.81896 -3.7595,-3.38845 -5,-5.70996 -2.0752,-3.88355 -2.2532,-5.4999 -2.2263,-20.22095 0.025,-13.55223 0.3745,-17.20783 2.2867,-23.89503 12.4461,-43.5258 50.2961,-71.25897 89.6547,-65.69126 4.3839,0.62014 8.333,1.48994 8.776,1.93288 0.4429,0.44294 0.091,3.88379 -0.7812,7.64633 -2.0475,8.82887 -12.4492,81.68083 -12.4584,87.25708 -0.01,4.15487 2.4875,8.25 5.0251,8.25 4.9652,0 14.3409,-8.57196 19.0172,-17.38681 2.2008,-4.14855 3.9665,-5.87931 3.9413,-3.86319 -0.023,1.8396 -6.3198,11.35742 -11.7693,17.78963 -7.9085,9.33473 -15.5705,14.59533 -22.1834,15.23075 -9.7125,0.93325 -10.7709,-2.66561 -7.8567,-26.7148 2.5427,-20.98333 2.6565,-23.24912 1.193,-23.75233 -0.6192,-0.21291 -4.4082,4.24426 -8.42,9.90482 -8.4526,11.92626 -25.0024,28.99712 -32.9542,33.99179 -10.6864,6.71228 -20.0678,8.58219 -26.2445,5.23105 z m 31.1914,-16.19822 c 6.8567,-3.23826 20.7114,-16.91122 27.4981,-27.13741 9.0417,-13.62379 14.4529,-28.75893 16.7863,-46.95099 1.1302,-8.81087 1.0891,-9.43686 -0.7058,-10.7493 -8.2741,-6.05019 -26.0644,-7.84512 -34.8561,-3.51676 -13.756,6.77239 -24.9687,26.20288 -29.1436,50.50276 -1.9297,11.23183 -2.0181,29.52018 -0.1638,33.90113 3.3989,8.0304 9.4766,9.19681 20.5849,3.95057 z m 202.1723,14.12182 c -3.0618,-3.06177 -4.1418,-5.13971 -5.1282,-9.86657 -1.7117,-8.20173 -0.7093,-26.74328 1.9995,-36.98794 6.3131,-23.8759 25.8979,-49.3753 46.0095,-59.90434 8.5727,-4.48808 15.1792,-6.34359 25.5954,-7.18875 10.0961,-0.8192 9.6826,-0.29836 11.4384,-14.40691 3.4825,-27.98252 14.4612,-51.78772 31.8518,-69.06453 8.2968,-8.24245 16.9629,-13.9792 25.8204,-17.09236 6.8357,-2.40255 21.921,-4.40453 25.8183,-3.42637 l 2.8056,0.70415 -7.2407,7.28928 -7.2406,7.28928 -5.1743,-0.95545 c -6.8581,-1.26637 -17.8907,-0.18423 -23.5232,2.30729 -12.865,5.69083 -19.4067,15.98573 -24.2497,38.16264 -1.5201,6.96115 -13.4251,108.86275 -16.4231,140.5746 -1.162,12.2912 2.0409,16.07492 10.2452,12.10327 4.6387,-2.24554 8.9052,-7.08789 13.3532,-15.15543 2.038,-3.69631 2.8924,-4.59927 2.9052,-3.07015 0.028,3.29737 -8.998,16.07198 -16.3286,23.11119 -7.1848,6.89917 -11.585,9.22259 -17.4662,9.22259 -8.0695,0 -9.3183,-5.45309 -6.7763,-29.59001 1.9579,-18.59057 1.975,-20.40999 0.1923,-20.40999 -0.7682,0 -4.3646,4.45793 -7.9919,9.90652 -10.0233,15.05626 -25.9541,30.2166 -38.7023,36.83058 -3.5344,1.83372 -7.1944,2.81364 -11.5432,3.09055 -6.2735,0.39947 -6.4253,0.348 -10.2465,-3.47314 z m 32.8638,-14.13947 c 7.1187,-3.3628 20.1698,-16.25316 26.8371,-26.50648 8.5913,-13.21212 14.0626,-30.47566 15.7351,-49.64912 0.6472,-7.41975 0.5686,-7.86004 -1.6882,-9.45612 -4.501,-3.18324 -15.6183,-5.90879 -21.5883,-5.29264 -24.2537,2.5032 -42.5901,36.39161 -41.1238,76.00297 0.4307,11.63391 1.8017,14.91997 7.1706,17.18657 3.8999,1.64647 7.534,1.0799 14.6575,-2.28518 z M 1429.4619,327.75 c 1.3404,-7.88364 9.5381,-85.67659 9.5381,-90.51287 0,-8.74778 -2.8932,-11.93375 -9.2446,-10.18005 -3.9229,1.08319 -10.1833,7.29747 -13.8917,13.7895 -2.3802,4.16684 -3.8637,5.26083 -3.8637,2.8492 0,-4.42779 12.3599,-18.25063 22.6747,-25.35859 6.3641,-4.38551 13.2975,-5.57734 16.354,-2.8112 3.8602,3.49344 4.2003,8.10129 2.0803,28.1887 -1.0853,10.2828 -1.7522,19.05359 -1.4821,19.49065 1.3701,2.21693 3.6542,-0.14552 9.4802,-9.80535 17.0792,-28.31867 31.6201,-40.05984 48.5756,-39.22259 3.9505,0.19507 7.4986,0.67058 7.8847,1.0567 0.3862,0.38612 -2.5669,4.32822 -6.5623,8.76022 -6.005,6.66128 -7.6319,7.93971 -9.3847,7.37475 -4.0787,-1.31463 -13.0587,-0.72357 -16.6204,1.09395 -13.4046,6.8403 -29.3676,29.93188 -34.9358,50.53698 -1.1147,4.125 -2.945,15.57236 -4.0674,25.43857 -1.1223,9.86621 -2.1433,18.01437 -2.2687,18.107 -0.5743,0.42406 -13.2122,4.45443 -13.9676,4.45443 -0.4681,0 -0.6025,-1.4625 -0.2986,-3.25 z M 1138,189.5069 c 0,-0.2712 1.6309,-4.56796 3.6243,-9.54835 3.5737,-8.92871 3.7029,-9.0951 9.25,-11.90613 3.0941,-1.56799 7.6507,-4.46534 10.1257,-6.43856 3.9949,-3.18501 4.5347,-3.37329 4.8095,-1.67754 0.804,4.96226 -7.7297,15.81604 -19.2558,24.4908 -7.0493,5.30549 -8.5537,6.19889 -8.5537,5.07978 z"
       id="primaryShadow"
       inkscape:connector-curvature="0"
       class="primary" />
    <path
       
       d="M 35.762571,456.43461 C 30.691484,453.68307 30,450.75522 30,432.03497 v -17.06434 l 3.423114,-3.73532 3.423114,-3.73531 202.826882,-0.28532 c 111.55479,-0.15693 204.36639,-0.01 206.24799,0.32741 1.94653,0.34863 4.64043,1.91802 6.25,3.64108 L 455,414.21151 v 18.17174 c 0,19.86905 -0.32752,21.1834 -6.01104,24.12246 -2.53668,1.31177 -27.78297,1.4894 -206.6893,1.45425 -178.31249,-0.035 -204.142003,-0.22579 -206.537089,-1.52535 z M 86.68392,376.25 c -0.238763,-0.4125 20.5996,-48 46.30746,-105.75 32.09825,-72.10532 48.42815,-107.64457 52.1251,-113.4415 6.22207,-9.75636 17.53917,-21.64136 26.88352,-28.23256 6.79339,-4.79184 159.0557,-92.103576 159.62535,-91.533927 0.17962,0.179619 -10.205,31.942379 -23.07693,70.583907 -16.10785,48.3558 -23.6228,72.30511 -24.10698,76.82634 -1.40331,13.10389 -0.46224,15.71118 38.45226,106.53383 19.81481,46.24583 35.79323,84.46146 35.5076,84.92362 -0.64269,1.03988 -311.115687,1.12981 -311.71738,0.0903 z M 300.3646,356.14127 c 7.88375,-3.88115 14.69234,-11.17682 17.86335,-19.14127 3.37128,-8.46745 3.10495,-20.50665 -0.63515,-28.7116 -2.92996,-6.42769 -11.1133,-15.17271 -17.21337,-18.39486 -4.59754,-2.42849 -8.46677,-13.46554 -9.12892,-26.0404 -0.42296,-8.03252 -0.14459,-10.8432 1.66349,-16.7959 1.9753,-6.50327 2.87652,-7.84498 9.9768,-14.85315 9.77199,-9.64523 12.44799,-15.58863 12.47367,-27.70409 0.0139,-6.5746 -0.4596,-9.03981 -2.65775,-13.83589 -3.547,-7.7391 -7.68437,-12.80502 -13.4597,-16.48047 -19.00764,-12.09655 -43.83453,-5.29551 -53.4258,14.63538 -2.81873,5.85739 -3.24399,7.83003 -3.44968,16.00201 -0.25583,10.16432 -0.8325,11.61681 -6.98397,17.59104 -7.63414,7.41419 -18.24272,12.55529 -28.94399,14.02677 -4.19336,0.57661 -5.85411,0.25344 -10.94358,-2.12953 -5.32186,-2.49179 -7.13024,-2.80931 -16,-2.80931 -8.74771,0 -10.71337,0.33438 -15.6965,2.67018 -7.26678,3.40624 -14.22708,10.36654 -17.63332,17.63332 -2.3358,4.98313 -2.67018,6.94879 -2.67018,15.6965 0,8.74771 0.33438,10.71337 2.67018,15.6965 5.57747,11.89882 17.25381,19.86605 30.24494,20.63731 8.73755,0.51874 16.03579,-1.09973 21.99182,-4.87693 5.86612,-3.72018 11.60838,-3.8805 21.90258,-0.61148 9.43207,2.99524 17.83034,8.5795 22.64362,15.05642 3.18746,4.28916 3.88158,6.12965 4.37412,11.59818 1.12621,12.50409 6.5143,22.13696 16.0359,28.66915 7.0502,4.83672 12.71076,6.36127 22.29137,6.00373 6.7954,-0.2536 9.24716,-0.84223 14.71007,-3.53161 z M 243.38011,292.5458 c -3.36595,-1.29605 -8.09095,-3.57521 -10.5,-5.0648 -5.43338,-3.35963 -13.56295,-11.08047 -15.45857,-14.68134 -2.00979,-3.81777 -1.77433,-10.70884 0.49296,-14.42709 5.97948,-9.80607 22.36764,-20.45886 35.16792,-22.86021 2.65337,-0.49778 4.95501,0.0782 10.29116,2.57527 6.01977,2.817 7.11457,3.76167 8.81532,7.60651 3.79378,8.57646 3.93741,28.17134 0.27676,37.75662 -1.43134,3.74791 -2.87708,5.39066 -7.14933,8.12358 -6.62187,4.23596 -12.75287,4.50748 -21.93622,0.97146 z M 554,239.98749 v -94.03068 l 19.25,0.2716 19.25,0.27159 0.5,83.66694 c 0.275,46.01681 0.87439,84.04181 1.33199,84.5 0.45759,0.45818 14.76234,0.96405 31.78833,1.12415 l 30.95635,0.29108 -0.28834,8.70892 L 656.5,333.5 605.25,333.75908 554,334.01816 Z M 702.24487,240.29611 702.5,146.5 l 41,-0.27519 c 23.63902,-0.15866 43.73584,0.14477 47.461,0.7166 16.58826,2.54636 30.27949,15.13705 34.00021,31.26718 0.59166,2.56498 0.99496,27.62482 1.00248,62.29141 0.0135,62.46618 -0.0923,63.9246 -5.28073,72.77801 -3.5905,6.12673 -12.76592,14.40294 -19.43032,17.5261 L 795.5,333.5 l -46.75513,0.29611 -46.75514,0.2961 z m 71.32376,72.67067 c 4.83565,-2.3409 9.01292,-6.74497 11.08291,-11.68466 1.0795,-2.57606 1.34408,-14.74288 1.3265,-61 -0.0247,-65.11481 0.29968,-62.20722 -7.75096,-69.46557 -5.345,-4.81899 -9.31963,-5.80425 -23.4419,-5.81097 -10.56185,-0.005 -11.81669,0.18479 -12.75,1.92868 -1.20025,2.24269 -1.46271,144.87974 -0.26987,146.6658 1.3961,2.09039 3.7814,2.38735 15.57665,1.93922 9.38197,-0.35644 12.75282,-0.89084 16.22667,-2.5725 z m 346.38287,18.18846 c -2.2724,-1.84623 -2.4408,-2.60038 -2.3052,-10.32348 0.08,-4.58247 2.6604,-25.91131 5.7331,-47.39743 6.5162,-45.56493 6.4515,-47.37471 -1.6951,-47.41902 -3.6087,-0.0196 -6.2192,1.3457 -11.1843,5.8495 -3.079,2.79289 -2.8487,2.39964 1,-1.70786 6.014,-6.41834 15.6548,-13.46266 20.606,-15.05632 7.7473,-2.49367 11.723,2.73284 10.4456,13.73217 -0.362,3.11696 -3.1286,23.17887 -6.1481,44.58203 -5.278,37.41188 -5.6748,43.22036 -3.1656,46.33517 1.3735,1.70497 6.6383,1.56297 10.1609,-0.27405 4.5987,-2.39825 4.0908,-1.10152 -1.5576,3.97692 -9.2581,8.32381 -17.5385,11.23746 -21.8897,7.70237 z m 172.357,0.76309 c -7.0111,-2.07641 -9.8686,-10.05844 -9.6363,-26.91833 0.3027,-21.96679 6.9141,-40.64875 20.2655,-57.26441 C 1319.5078,227.11428 1341.0053,216 1364.3214,216 c 6.8106,0 17.4215,1.40953 18.4648,2.45284 0.2413,0.24129 -0.2761,3.72562 -1.1498,7.74294 -1.7105,7.8653 -11.093,72.08962 -12.0969,82.80422 -0.7643,8.15784 0.6405,11.36679 5.1696,11.80861 1.74,0.16973 4.5422,-0.40432 6.2272,-1.27568 4.4995,-2.32676 3.7356,-0.29524 -1.6863,4.4847 -12.6321,11.13649 -22.8011,11.53736 -23.9188,0.94291 -0.3942,-3.73605 2.4997,-30.51875 4.2097,-38.96054 0.6705,-3.31011 -0.7849,-5.39645 -3.1661,-4.53854 -1.0311,0.37151 -4.5125,4.68978 -7.7363,9.59614 -6.8294,10.39371 -20.0802,24.83618 -28.937,31.53929 -10.6319,8.04661 -20.4344,11.38227 -27.393,9.32144 z m 28.3438,-15.90246 c 12.5842,-6.28838 27.048,-22.84222 35.4424,-40.56392 5.2053,-10.98895 8.125,-21.14454 10.0201,-34.85293 1.2108,-8.75839 1.1941,-8.93044 -1.041,-10.74036 -3.6948,-2.99183 -14.9072,-6.01523 -22.6309,-6.10234 -12.8262,-0.14465 -22.9466,6.69604 -31.452,21.25933 -9.8846,16.92472 -15.7833,49.00892 -11.8687,64.55549 2.405,9.55106 10.4779,11.96758 21.5301,6.44473 z m 207.3683,15.86809 c -8.532,-3.40414 -11.7943,-14.26872 -9.9853,-33.25459 1.2743,-13.37403 3.2047,-20.10679 9.4988,-33.12937 14.419,-29.83314 40.5845,-49.42369 66.0935,-49.48522 3.719,-0.009 6.5421,-0.5143 7.1822,-1.28562 0.5801,-0.69897 1.5708,-5.31147 2.2015,-10.25 3.0761,-24.08667 9.7419,-42.80965 20.8199,-58.47916 15.4156,-21.80509 32.7852,-32.50642 54.6688,-33.68133 l 10,-0.53689 -6.6315,6.73132 -6.6314,6.73132 -12.8686,0.12779 c -11.9108,0.11828 -13.2898,0.33466 -18.529,2.90757 -11.8292,5.80907 -19.1994,18.80044 -23.3315,41.12618 -2.265,12.23735 -15.508,132.76089 -15.508,141.13647 0,8.37657 1.2615,10.45757 6.3393,10.45757 1.7784,0 4.963,-1.16855 7.1786,-2.63411 3.8316,-2.53454 3.7742,-2.41825 -1.5179,3.07654 -6.2709,6.51111 -11.8489,10.10676 -17.1946,11.08397 -3.1329,0.57271 -4.083,0.2869 -6.25,-1.88005 -2.302,-2.30207 -2.556,-3.32835 -2.5617,-10.3509 0,-4.2875 0.7389,-14.47723 1.6498,-22.64385 1.3577,-12.1732 1.4202,-14.99417 0.347,-15.65748 -2.1183,-1.30918 -3.5747,-0.174 -6.373,4.96724 -9.9034,18.19595 -33.6646,40.30242 -47.8455,44.51371 -5.8519,1.73784 -7.2841,1.79231 -10.7514,0.40889 z m 28.3926,-15.9468 c 6.2984,-3.14439 17.0798,-13.15 23.3892,-21.70628 11.4166,-15.48214 16.7666,-31.05742 19.6761,-57.28313 0.7437,-6.70327 -0.2895,-7.96513 -9.0852,-11.0964 -27.9226,-9.94037 -51.2562,14.54378 -56.4519,59.23537 -2.0433,17.57553 -0.2742,28.39183 5.3029,32.42187 3.1067,2.24492 10.9653,1.52563 17.1689,-1.57143 z M 1224.5,330.87949 c -4.4,-0.53256 -18.1926,-0.82367 -30.6503,-0.64691 l -22.6502,0.3214 3.4527,-6.85631 c 1.8991,-3.77096 5.1519,-8.73311 7.2285,-11.02698 9.5517,-10.5509 56.3665,-69.80071 61.6629,-78.04192 1.7212,-2.67809 1.7322,-2.95395 0.1638,-4.10079 -0.9249,-0.67625 -5.1749,-1.50525 -9.4445,-1.84222 -4.2696,-0.33696 -12.6051,-1.97911 -18.5234,-3.64921 -5.9183,-1.6701 -12.3532,-3.03655 -14.2997,-3.03655 -8.1536,0 -12.2852,5.56977 -11.0482,14.89429 0.6111,4.60698 0.5543,4.7274 -4.0446,8.57163 l -4.6645,3.89899 0.5788,-5.60739 c 0.76,-7.36445 3.5938,-13.56012 8.7709,-19.17657 9.703,-10.52658 14.6899,-11.59123 37.5304,-8.01233 16.5265,2.58955 27.6805,2.87197 32.8782,0.83248 1.603,-0.62897 1.2786,0.44484 -1.8635,6.16868 -2.0924,3.81162 -5.5621,8.95522 -7.7105,11.43022 -8.1172,9.3513 -48.6662,59.5632 -55.5851,68.83106 -6.8116,9.12427 -8.8644,13.99363 -6.0317,14.3074 0.6875,0.0761 4.4,0.0383 8.25,-0.0841 3.85,-0.12241 14.628,0.76095 23.9512,1.96302 19.8781,2.56295 28.266,2.37466 34.2988,-0.76996 2.3375,-1.21843 4.25,-1.83909 4.25,-1.37925 0,1.94853 -4.8395,7.77535 -8.7274,10.50788 -3.6536,2.56783 -5.2076,2.98417 -11.9853,3.21106 -4.283,0.14337 -11.3873,-0.17506 -15.7873,-0.70762 z M 1011.9866,327.75 c -0.025,-6.16087 -4.9963,-38.31593 -9.9324,-64.25 -2.72171,-14.3 -5.91252,-32.74547 -7.09067,-40.98994 -1.17814,-8.24446 -2.35346,-15.33196 -2.61182,-15.75 -0.25836,-0.41803 -1.356,-0.76006 -2.4392,-0.76006 -1.59702,0 -5.98966,8.08411 -23.22895,42.75 -11.69273,23.5125 -23.4535,47.925 -26.13505,54.25 -4.96562,11.71245 -7.35385,15.06307 -15.8287,22.20719 l -4.78018,4.02959 0.64611,-24.36839 c 0.71628,-27.01462 -0.7242,-66.08441 -3.18124,-86.284 C 913.64356,187.66536 907.14687,175 895.0479,175 c -8.25146,0 -18.92827,9.16042 -22.14522,19 -0.62936,1.925 -1.59678,3.95 -2.14983,4.5 -1.97621,1.96532 0.0534,-7.58369 2.809,-13.21594 3.39011,-6.92914 15.15422,-19.48411 20.83236,-22.23285 5.22086,-2.52737 13.44725,-2.69481 18.33953,-0.37327 12.08738,5.73584 19.89087,40.35666 22.44342,99.57206 1.61643,37.4989 0.61951,37.61663 21.16944,-2.5 26.40652,-51.54961 28.57342,-55.94428 32.20095,-65.30641 3.48919,-9.00509 4.95124,-10.94224 14.45245,-19.14881 l 2.5,-2.15935 0.1685,12.18228 c 0.2431,17.576 2.3385,32.36838 12.7746,90.18229 4.7812,26.48708 4.6415,26 7.4568,26 2.0572,0 4.0414,-3.51509 17.217,-30.5 16.3705,-33.52841 21.8494,-46.56112 24.8687,-59.15578 3.5333,-14.73858 2.3462,-24.75496 -3.6794,-31.0459 l -2.5878,-2.70169 5.0399,-5.79831 c 2.7719,-3.18908 6.2444,-6.92134 7.7166,-8.29391 l 2.6768,-2.4956 3.8553,4.13307 c 5.7461,6.16008 6.6867,10.86484 4.1924,20.9686 -3.0734,12.44956 -9.2981,27.09264 -25.0149,58.84578 -12.2267,24.70185 -24.2265,50.5661 -30.5778,65.90729 -1.5992,3.86266 -15.0243,19.63645 -16.7126,19.63645 -0.4918,0 -0.9001,-1.4625 -0.9075,-3.25 z m 418.388,-2 c 2.461,-17.38248 9.6893,-89.01355 9.2917,-92.07762 -1.2955,-9.98149 -10.295,-10.36022 -18.9349,-0.79685 -1.99,2.20275 -4.3303,5.38188 -5.2005,7.06473 -0.8702,1.68286 -1.8245,3.05974 -2.1206,3.05974 -0.296,0 0.4948,-1.83808 1.7574,-4.08463 3.3652,-5.98749 18.0038,-19.6214 24.1296,-22.47351 6.4579,-3.00674 7.9106,-3.02726 11.2453,-0.15886 3.6095,3.10474 3.9803,7.84903 2.0398,26.09629 -0.8703,8.18361 -1.5824,16.65241 -1.5824,18.81955 0,3.46992 0.2579,3.90212 2.1608,3.62071 1.5368,-0.22727 3.9193,-3.2703 8.25,-10.53713 11.6958,-19.6254 23.5373,-32.23993 35.1406,-37.43462 5.1569,-2.30873 17.6072,-3.10374 19.4416,-1.24144 0.511,0.51888 -1.7668,3.82269 -5.4316,7.87806 l -6.3117,6.98442 -8.9569,0.0156 c -8.6631,0.0151 -9.1418,0.13826 -14.5949,3.75588 -12.5495,8.32557 -26.6828,30.65089 -31.6169,49.94308 -1.0326,4.03728 -2.662,14.76013 -3.621,23.82856 -0.959,9.06843 -2.2423,16.99305 -2.8518,17.61026 -1.0756,1.08917 -10.0148,4.3778 -11.8999,4.3778 -0.5282,0 -0.6734,-1.85016 -0.3337,-4.25 z m -326.4044,-86.69431 c 0.5723,-1.06937 1.5348,-2.24977 2.1389,-2.62312 0.6041,-0.37335 0.3249,0.50159 -0.6204,1.94431 -2.0016,3.05486 -3.0381,3.51819 -1.5185,0.67881 z m 35.3948,-51.6302 c 0.3368,-1.06124 1.9153,-5.01785 3.5078,-8.79249 2.597,-6.15563 3.4222,-7.15107 8.0068,-9.65813 2.8112,-1.53733 7.0258,-4.20641 9.3658,-5.93129 3.5034,-2.58241 4.3144,-2.84905 4.5933,-1.51017 0.835,4.009 -9.3114,15.51022 -21.7124,24.61161 -3.5607,2.61324 -4.2599,2.85128 -3.7613,1.28047 z"
       id="secondary"
       inkscape:connector-curvature="0"
       class="secondary" />
    <path
       d="m 86.68392,376.25 c -0.238763,-0.4125 20.5996,-48 46.30746,-105.75 32.09825,-72.10532 48.42815,-107.64457 52.1251,-113.4415 6.22207,-9.75636 17.53917,-21.64136 26.88352,-28.23256 6.79339,-4.79184 159.0557,-92.103576 159.62535,-91.533927 0.17962,0.179619 -10.205,31.942379 -23.07693,70.583907 -16.10785,48.3558 -23.6228,72.30511 -24.10698,76.82634 -1.40331,13.10389 -0.46224,15.71118 38.45226,106.53383 19.81481,46.24583 35.79323,84.46146 35.5076,84.92362 -0.64269,1.03988 -311.115687,1.12981 -311.71738,0.0903 z M 300.3646,356.14127 c 7.88375,-3.88115 14.69234,-11.17682 17.86335,-19.14127 3.37128,-8.46745 3.10495,-20.50665 -0.63515,-28.7116 -2.92996,-6.42769 -11.1133,-15.17271 -17.21337,-18.39486 -4.59754,-2.42849 -8.46677,-13.46554 -9.12892,-26.0404 -0.42296,-8.03252 -0.14459,-10.8432 1.66349,-16.7959 1.9753,-6.50327 2.87652,-7.84498 9.9768,-14.85315 9.77199,-9.64523 12.44799,-15.58863 12.47367,-27.70409 0.0139,-6.5746 -0.4596,-9.03981 -2.65775,-13.83589 -3.547,-7.7391 -7.68437,-12.80502 -13.4597,-16.48047 -19.00764,-12.09655 -43.83453,-5.29551 -53.4258,14.63538 -2.81873,5.85739 -3.24399,7.83003 -3.44968,16.00201 -0.25583,10.16432 -0.8325,11.61681 -6.98397,17.59104 -7.63414,7.41419 -18.24272,12.55529 -28.94399,14.02677 -4.19336,0.57661 -5.85411,0.25344 -10.94358,-2.12953 -5.32186,-2.49179 -7.13024,-2.80931 -16,-2.80931 -8.74771,0 -10.71337,0.33438 -15.6965,2.67018 -7.26678,3.40624 -14.22708,10.36654 -17.63332,17.63332 -2.3358,4.98313 -2.67018,6.94879 -2.67018,15.6965 0,8.74771 0.33438,10.71337 2.67018,15.6965 5.57747,11.89882 17.25381,19.86605 30.24494,20.63731 8.73755,0.51874 16.03579,-1.09973 21.99182,-4.87693 5.86612,-3.72018 11.60838,-3.8805 21.90258,-0.61148 9.43207,2.99524 17.83034,8.5795 22.64362,15.05642 3.18746,4.28916 3.88158,6.12965 4.37412,11.59818 1.12621,12.50409 6.5143,22.13696 16.0359,28.66915 7.0502,4.83672 12.71076,6.36127 22.29137,6.00373 6.7954,-0.2536 9.24716,-0.84223 14.71007,-3.53161 z M 243.38011,292.5458 c -3.36595,-1.29605 -8.09095,-3.57521 -10.5,-5.0648 -5.43338,-3.35963 -13.56295,-11.08047 -15.45857,-14.68134 -2.00979,-3.81777 -1.77433,-10.70884 0.49296,-14.42709 5.97948,-9.80607 22.36764,-20.45886 35.16792,-22.86021 2.65337,-0.49778 4.95501,0.0782 10.29116,2.57527 6.01977,2.817 7.11457,3.76167 8.81532,7.60651 3.79378,8.57646 3.93741,28.17134 0.27676,37.75662 -1.43134,3.74791 -2.87708,5.39066 -7.14933,8.12358 -6.62187,4.23596 -12.75287,4.50748 -21.93622,0.97146 z m 876.57139,38.60944 c -2.2724,-1.84623 -2.4408,-2.60038 -2.3052,-10.32348 0.08,-4.58247 2.6604,-25.91131 5.7331,-47.39743 6.5162,-45.56493 6.4515,-47.37471 -1.6951,-47.41902 -3.6087,-0.0196 -6.2192,1.3457 -11.1843,5.8495 -3.079,2.79289 -2.8487,2.39964 1,-1.70786 6.014,-6.41834 15.6548,-13.46266 20.606,-15.05632 7.7473,-2.49367 11.723,2.73284 10.4456,13.73217 -0.362,3.11696 -3.1286,23.17887 -6.1481,44.58203 -5.278,37.41188 -5.6748,43.22036 -3.1656,46.33517 1.3735,1.70497 6.6383,1.56297 10.1609,-0.27405 4.5987,-2.39825 4.0908,-1.10152 -1.5576,3.97692 -9.2581,8.32381 -17.5385,11.23746 -21.8897,7.70237 z m 172.357,0.76309 c -7.0111,-2.07641 -9.8686,-10.05844 -9.6363,-26.91833 0.3027,-21.96679 6.9141,-40.64875 20.2655,-57.26441 C 1319.5078,227.11428 1341.0053,216 1364.3214,216 c 6.8106,0 17.4215,1.40953 18.4648,2.45284 0.2413,0.24129 -0.2761,3.72562 -1.1498,7.74294 -1.7105,7.8653 -11.093,72.08962 -12.0969,82.80422 -0.7643,8.15784 0.6405,11.36679 5.1696,11.80861 1.74,0.16973 4.5422,-0.40432 6.2272,-1.27568 4.4995,-2.32676 3.7356,-0.29524 -1.6863,4.4847 -12.6321,11.13649 -22.8011,11.53736 -23.9188,0.94291 -0.3942,-3.73605 2.4997,-30.51875 4.2097,-38.96054 0.6705,-3.31011 -0.7849,-5.39645 -3.1661,-4.53854 -1.0311,0.37151 -4.5125,4.68978 -7.7363,9.59614 -6.8294,10.39371 -20.0802,24.83618 -28.937,31.53929 -10.6319,8.04661 -20.4344,11.38227 -27.393,9.32144 z m 28.3438,-15.90246 c 12.5842,-6.28838 27.048,-22.84222 35.4424,-40.56392 5.2053,-10.98895 8.125,-21.14454 10.0201,-34.85293 1.2108,-8.75839 1.1941,-8.93044 -1.041,-10.74036 -3.6948,-2.99183 -14.9072,-6.01523 -22.6309,-6.10234 -12.8262,-0.14465 -22.9466,6.69604 -31.452,21.25933 -9.8846,16.92472 -15.7833,49.00892 -11.8687,64.55549 2.405,9.55106 10.4779,11.96758 21.5301,6.44473 z m 207.3683,15.86809 c -8.532,-3.40414 -11.7943,-14.26872 -9.9853,-33.25459 1.2743,-13.37403 3.2047,-20.10679 9.4988,-33.12937 14.419,-29.83314 40.5845,-49.42369 66.0935,-49.48522 3.719,-0.009 6.5421,-0.5143 7.1822,-1.28562 0.5801,-0.69897 1.5708,-5.31147 2.2015,-10.25 3.0761,-24.08667 9.7419,-42.80965 20.8199,-58.47916 15.4156,-21.80509 32.7852,-32.50642 54.6688,-33.68133 l 10,-0.53689 -6.6315,6.73132 -6.6314,6.73132 -12.8686,0.12779 c -11.9108,0.11828 -13.2898,0.33466 -18.529,2.90757 -11.8292,5.80907 -19.1994,18.80044 -23.3315,41.12618 -2.265,12.23735 -15.508,132.76089 -15.508,141.13647 0,8.37657 1.2615,10.45757 6.3393,10.45757 1.7784,0 4.963,-1.16855 7.1786,-2.63411 3.8316,-2.53454 3.7742,-2.41825 -1.5179,3.07654 -6.2709,6.51111 -11.8489,10.10676 -17.1946,11.08397 -3.1329,0.57271 -4.083,0.2869 -6.25,-1.88005 -2.302,-2.30207 -2.556,-3.32835 -2.5617,-10.3509 0,-4.2875 0.7389,-14.47723 1.6498,-22.64385 1.3577,-12.1732 1.4202,-14.99417 0.347,-15.65748 -2.1183,-1.30918 -3.5747,-0.174 -6.373,4.96724 -9.9034,18.19595 -33.6646,40.30242 -47.8455,44.51371 -5.8519,1.73784 -7.2841,1.79231 -10.7514,0.40889 z m 28.3926,-15.9468 c 6.2984,-3.14439 17.0798,-13.15 23.3892,-21.70628 11.4166,-15.48214 16.7666,-31.05742 19.6761,-57.28313 0.7437,-6.70327 -0.2895,-7.96513 -9.0852,-11.0964 -27.9226,-9.94037 -51.2562,14.54378 -56.4519,59.23537 -2.0433,17.57553 -0.2742,28.39183 5.3029,32.42187 3.1067,2.24492 10.9653,1.52563 17.1689,-1.57143 z M 1224.5,330.87949 c -4.4,-0.53256 -18.1926,-0.82367 -30.6503,-0.64691 l -22.6502,0.3214 3.4527,-6.85631 c 1.8991,-3.77096 5.1519,-8.73311 7.2285,-11.02698 9.5517,-10.5509 56.3665,-69.80071 61.6629,-78.04192 1.7212,-2.67809 1.7322,-2.95395 0.1638,-4.10079 -0.9249,-0.67625 -5.1749,-1.50525 -9.4445,-1.84222 -4.2696,-0.33696 -12.6051,-1.97911 -18.5234,-3.64921 -5.9183,-1.6701 -12.3532,-3.03655 -14.2997,-3.03655 -8.1536,0 -12.2852,5.56977 -11.0482,14.89429 0.6111,4.60698 0.5543,4.7274 -4.0446,8.57163 l -4.6645,3.89899 0.5788,-5.60739 c 0.76,-7.36445 3.5938,-13.56012 8.7709,-19.17657 9.703,-10.52658 14.6899,-11.59123 37.5304,-8.01233 16.5265,2.58955 27.6805,2.87197 32.8782,0.83248 1.603,-0.62897 1.2786,0.44484 -1.8635,6.16868 -2.0924,3.81162 -5.5621,8.95522 -7.7105,11.43022 -8.1172,9.3513 -48.6662,59.5632 -55.5851,68.83106 -6.8116,9.12427 -8.8644,13.99363 -6.0317,14.3074 0.6875,0.0761 4.4,0.0383 8.25,-0.0841 3.85,-0.12241 14.628,0.76095 23.9512,1.96302 19.8781,2.56295 28.266,2.37466 34.2988,-0.76996 2.3375,-1.21843 4.25,-1.83909 4.25,-1.37925 0,1.94853 -4.8395,7.77535 -8.7274,10.50788 -3.6536,2.56783 -5.2076,2.98417 -11.9853,3.21106 -4.283,0.14337 -11.3873,-0.17506 -15.7873,-0.70762 z M 1011.9866,327.75 c -0.025,-6.16087 -4.9963,-38.31593 -9.9324,-64.25 -2.72171,-14.3 -5.91252,-32.74547 -7.09067,-40.98994 -1.17814,-8.24446 -2.35346,-15.33196 -2.61182,-15.75 -0.25836,-0.41803 -1.356,-0.76006 -2.4392,-0.76006 -1.59702,0 -5.98966,8.08411 -23.22895,42.75 -11.69273,23.5125 -23.4535,47.925 -26.13505,54.25 -4.96562,11.71245 -7.35385,15.06307 -15.8287,22.20719 l -4.78018,4.02959 0.64611,-24.36839 c 0.71628,-27.01462 -0.7242,-66.08441 -3.18124,-86.284 C 913.64356,187.66536 907.14687,175 895.0479,175 c -8.25146,0 -18.92827,9.16042 -22.14522,19 -0.62936,1.925 -1.59678,3.95 -2.14983,4.5 -1.97621,1.96532 0.0534,-7.58369 2.809,-13.21594 3.39011,-6.92914 15.15422,-19.48411 20.83236,-22.23285 5.22086,-2.52737 13.44725,-2.69481 18.33953,-0.37327 12.08738,5.73584 19.89087,40.35666 22.44342,99.57206 1.61643,37.4989 0.61951,37.61663 21.16944,-2.5 26.40652,-51.54961 28.57342,-55.94428 32.20095,-65.30641 3.48919,-9.00509 4.95124,-10.94224 14.45245,-19.14881 l 2.5,-2.15935 0.1685,12.18228 c 0.2431,17.576 2.3385,32.36838 12.7746,90.18229 4.7812,26.48708 4.6415,26 7.4568,26 2.0572,0 4.0414,-3.51509 17.217,-30.5 16.3705,-33.52841 21.8494,-46.56112 24.8687,-59.15578 3.5333,-14.73858 2.3462,-24.75496 -3.6794,-31.0459 l -2.5878,-2.70169 5.0399,-5.79831 c 2.7719,-3.18908 6.2444,-6.92134 7.7166,-8.29391 l 2.6768,-2.4956 3.8553,4.13307 c 5.7461,6.16008 6.6867,10.86484 4.1924,20.9686 -3.0734,12.44956 -9.2981,27.09264 -25.0149,58.84578 -12.2267,24.70185 -24.2265,50.5661 -30.5778,65.90729 -1.5992,3.86266 -15.0243,19.63645 -16.7126,19.63645 -0.4918,0 -0.9001,-1.4625 -0.9075,-3.25 z m 418.388,-2 c 2.461,-17.38248 9.6893,-89.01355 9.2917,-92.07762 -1.2955,-9.98149 -10.295,-10.36022 -18.9349,-0.79685 -1.99,2.20275 -4.3303,5.38188 -5.2005,7.06473 -0.8702,1.68286 -1.8245,3.05974 -2.1206,3.05974 -0.296,0 0.4948,-1.83808 1.7574,-4.08463 3.3652,-5.98749 18.0038,-19.6214 24.1296,-22.47351 6.4579,-3.00674 7.9106,-3.02726 11.2453,-0.15886 3.6095,3.10474 3.9803,7.84903 2.0398,26.09629 -0.8703,8.18361 -1.5824,16.65241 -1.5824,18.81955 0,3.46992 0.2579,3.90212 2.1608,3.62071 1.5368,-0.22727 3.9193,-3.2703 8.25,-10.53713 11.6958,-19.6254 23.5373,-32.23993 35.1406,-37.43462 5.1569,-2.30873 17.6072,-3.10374 19.4416,-1.24144 0.511,0.51888 -1.7668,3.82269 -5.4316,7.87806 l -6.3117,6.98442 -8.9569,0.0156 c -8.6631,0.0151 -9.1418,0.13826 -14.5949,3.75588 -12.5495,8.32557 -26.6828,30.65089 -31.6169,49.94308 -1.0326,4.03728 -2.662,14.76013 -3.621,23.82856 -0.959,9.06843 -2.2423,16.99305 -2.8518,17.61026 -1.0756,1.08917 -10.0148,4.3778 -11.8999,4.3778 -0.5282,0 -0.6734,-1.85016 -0.3337,-4.25 z m -326.4044,-86.69431 c 0.5723,-1.06937 1.5348,-2.24977 2.1389,-2.62312 0.6041,-0.37335 0.3249,0.50159 -0.6204,1.94431 -2.0016,3.05486 -3.0381,3.51819 -1.5185,0.67881 z m 35.3948,-51.6302 c 0.3368,-1.06124 1.9153,-5.01785 3.5078,-8.79249 2.597,-6.15563 3.4222,-7.15107 8.0068,-9.65813 2.8112,-1.53733 7.0258,-4.20641 9.3658,-5.93129 3.5034,-2.58241 4.3144,-2.84905 4.5933,-1.51017 0.835,4.009 -9.3114,15.51022 -21.7124,24.61161 -3.5607,2.61324 -4.2599,2.85128 -3.7613,1.28047 z"
       id="primary"
       inkscape:connector-curvature="0"
       class="primary" />
  </g>
</svg>
